<?xml version="1.0" encoding="UTF-8"?><svg xmlns="http://www.w3.org/2000/svg" xmlns:xlink="http://www.w3.org/1999/xlink" version="1.0" viewBox="0 -2104.44173091 7290 8417.76692364"><path stroke="purple" stroke-width="3" fill="none" d="M 0 0L 30 0 L 45 -25.98076211 L 60 0 L 90 0 L 105 -25.98076211 L 90 -51.96152422 L 120 -51.96152422 L 135 -77.94228633 L 150 -51.96152422 L 180 -51.96152422 L 165 -25.98076211 L 180 0 L 210 0 L 225 -25.98076211 L 240 0 L 270 0 L 285 -25.98076211 L 270 -51.96152422 L 300 -51.96152422 L 315 -77.94228633 L 300 -103.92304844 L 270 -103.92304844 L 285 -129.90381055 L 270 -155.88457266 L 300 -155.88457266 L 315 -181.86533477 L 330 -155.88457266 L 360 -155.88457266 L 375 -181.86533477 L 360 -207.84609688 L 390 -207.84609688 L 405 -233.82685899 L 420 -207.84609688 L 450 -207.84609688 L 435 -181.86533477 L 450 -155.88457266 L 480 -155.88457266 L 495 -181.86533477 L 510 -155.88457266 L 540 -155.88457266 L 525 -129.90381055 L 540 -103.92304844 L 510 -103.92304844 L 495 -77.94228633 L 510 -51.96152422 L 540 -51.96152422 L 525 -25.98076211 L 540 0 L 570 0 L 585 -25.98076211 L 600 0 L 630 0 L 645 -25.98076211 L 630 -51.96152422 L 660 -51.96152422 L 675 -77.94228633 L 690 -51.96152422 L 720 -51.96152422 L 705 -25.98076211 L 720 0 L 750 0 L 765 -25.98076211 L 780 0 L 810 0 L 825 -25.98076211 L 810 -51.96152422 L 840 -51.96152422 L 855 -77.94228633 L 840 -103.92304844 L 810 -103.92304844 L 825 -129.90381055 L 810 -155.88457266 L 840 -155.88457266 L 855 -181.86533477 L 870 -155.88457266 L 900 -155.88457266 L 915 -181.86533477 L 900 -207.84609688 L 930 -207.84609688 L 945 -233.82685899 L 930 -259.8076211 L 900 -259.8076211 L 915 -285.78838321 L 900 -311.76914532 L 870 -311.76914532 L 855 -285.78838321 L 840 -311.76914532 L 810 -311.76914532 L 825 -337.74990743 L 810 -363.73066954 L 840 -363.73066954 L 855 -389.71143165 L 840 -415.69219376 L 810 -415.69219376 L 825 -441.67295587 L 810 -467.65371798 L 840 -467.65371798 L 855 -493.63448009 L 870 -467.65371798 L 900 -467.65371798 L 915 -493.63448009 L 900 -519.6152422 L 930 -519.6152422 L 945 -545.59600431 L 960 -519.6152422 L 990 -519.6152422 L 975 -493.63448009 L 990 -467.65371798 L 1020 -467.65371798 L 1035 -493.63448009 L 1050 -467.65371798 L 1080 -467.65371798 L 1095 -493.63448009 L 1080 -519.6152422 L 1110 -519.6152422 L 1125 -545.59600431 L 1110 -571.57676642 L 1080 -571.57676642 L 1095 -597.55752853 L 1080 -623.53829064 L 1110 -623.53829064 L 1125 -649.51905275 L 1140 -623.53829064 L 1170 -623.53829064 L 1185 -649.51905275 L 1170 -675.49981486 L 1200 -675.49981486 L 1215 -701.48057697 L 1230 -675.49981486 L 1260 -675.49981486 L 1245 -649.51905275 L 1260 -623.53829064 L 1290 -623.53829064 L 1305 -649.51905275 L 1320 -623.53829064 L 1350 -623.53829064 L 1335 -597.55752853 L 1350 -571.57676642 L 1320 -571.57676642 L 1305 -545.59600431 L 1320 -519.6152422 L 1350 -519.6152422 L 1335 -493.63448009 L 1350 -467.65371798 L 1380 -467.65371798 L 1395 -493.63448009 L 1410 -467.65371798 L 1440 -467.65371798 L 1455 -493.63448009 L 1440 -519.6152422 L 1470 -519.6152422 L 1485 -545.59600431 L 1500 -519.6152422 L 1530 -519.6152422 L 1515 -493.63448009 L 1530 -467.65371798 L 1560 -467.65371798 L 1575 -493.63448009 L 1590 -467.65371798 L 1620 -467.65371798 L 1605 -441.67295587 L 1620 -415.69219376 L 1590 -415.69219376 L 1575 -389.71143165 L 1590 -363.73066954 L 1620 -363.73066954 L 1605 -337.74990743 L 1620 -311.76914532 L 1590 -311.76914532 L 1575 -285.78838321 L 1560 -311.76914532 L 1530 -311.76914532 L 1515 -285.78838321 L 1530 -259.8076211 L 1500 -259.8076211 L 1485 -233.82685899 L 1500 -207.84609688 L 1530 -207.84609688 L 1515 -181.86533477 L 1530 -155.88457266 L 1560 -155.88457266 L 1575 -181.86533477 L 1590 -155.88457266 L 1620 -155.88457266 L 1605 -129.90381055 L 1620 -103.92304844 L 1590 -103.92304844 L 1575 -77.94228633 L 1590 -51.96152422 L 1620 -51.96152422 L 1605 -25.98076211 L 1620 0 L 1650 0 L 1665 -25.98076211 L 1680 0 L 1710 0 L 1725 -25.98076211 L 1710 -51.96152422 L 1740 -51.96152422 L 1755 -77.94228633 L 1770 -51.96152422 L 1800 -51.96152422 L 1785 -25.98076211 L 1800 0 L 1830 0 L 1845 -25.98076211 L 1860 0 L 1890 0 L 1905 -25.98076211 L 1890 -51.96152422 L 1920 -51.96152422 L 1935 -77.94228633 L 1920 -103.92304844 L 1890 -103.92304844 L 1905 -129.90381055 L 1890 -155.88457266 L 1920 -155.88457266 L 1935 -181.86533477 L 1950 -155.88457266 L 1980 -155.88457266 L 1995 -181.86533477 L 1980 -207.84609688 L 2010 -207.84609688 L 2025 -233.82685899 L 2040 -207.84609688 L 2070 -207.84609688 L 2055 -181.86533477 L 2070 -155.88457266 L 2100 -155.88457266 L 2115 -181.86533477 L 2130 -155.88457266 L 2160 -155.88457266 L 2145 -129.90381055 L 2160 -103.92304844 L 2130 -103.92304844 L 2115 -77.94228633 L 2130 -51.96152422 L 2160 -51.96152422 L 2145 -25.98076211 L 2160 0 L 2190 0 L 2205 -25.98076211 L 2220 0 L 2250 0 L 2265 -25.98076211 L 2250 -51.96152422 L 2280 -51.96152422 L 2295 -77.94228633 L 2310 -51.96152422 L 2340 -51.96152422 L 2325 -25.98076211 L 2340 0 L 2370 0 L 2385 -25.98076211 L 2400 0 L 2430 0 L 2445 -25.98076211 L 2430 -51.96152422 L 2460 -51.96152422 L 2475 -77.94228633 L 2460 -103.92304844 L 2430 -103.92304844 L 2445 -129.90381055 L 2430 -155.88457266 L 2460 -155.88457266 L 2475 -181.86533477 L 2490 -155.88457266 L 2520 -155.88457266 L 2535 -181.86533477 L 2520 -207.84609688 L 2550 -207.84609688 L 2565 -233.82685899 L 2550 -259.8076211 L 2520 -259.8076211 L 2535 -285.78838321 L 2520 -311.76914532 L 2490 -311.76914532 L 2475 -285.78838321 L 2460 -311.76914532 L 2430 -311.76914532 L 2445 -337.74990743 L 2430 -363.73066954 L 2460 -363.73066954 L 2475 -389.71143165 L 2460 -415.69219376 L 2430 -415.69219376 L 2445 -441.67295587 L 2430 -467.65371798 L 2460 -467.65371798 L 2475 -493.63448009 L 2490 -467.65371798 L 2520 -467.65371798 L 2535 -493.63448009 L 2520 -519.6152422 L 2550 -519.6152422 L 2565 -545.59600431 L 2580 -519.6152422 L 2610 -519.6152422 L 2595 -493.63448009 L 2610 -467.65371798 L 2640 -467.65371798 L 2655 -493.63448009 L 2670 -467.65371798 L 2700 -467.65371798 L 2715 -493.63448009 L 2700 -519.6152422 L 2730 -519.6152422 L 2745 -545.59600431 L 2730 -571.57676642 L 2700 -571.57676642 L 2715 -597.55752853 L 2700 -623.53829064 L 2730 -623.53829064 L 2745 -649.51905275 L 2760 -623.53829064 L 2790 -623.53829064 L 2805 -649.51905275 L 2790 -675.49981486 L 2820 -675.49981486 L 2835 -701.48057697 L 2820 -727.46133908 L 2790 -727.46133908 L 2805 -753.44210119 L 2790 -779.4228633 L 2760 -779.4228633 L 2745 -753.44210119 L 2730 -779.4228633 L 2700 -779.4228633 L 2715 -805.40362541 L 2700 -831.38438752 L 2730 -831.38438752 L 2745 -857.36514963 L 2730 -883.34591174 L 2700 -883.34591174 L 2715 -909.32667385 L 2700 -935.30743596 L 2670 -935.30743596 L 2655 -909.32667385 L 2640 -935.30743596 L 2610 -935.30743596 L 2595 -909.32667385 L 2610 -883.34591174 L 2580 -883.34591174 L 2565 -857.36514963 L 2550 -883.34591174 L 2520 -883.34591174 L 2535 -909.32667385 L 2520 -935.30743596 L 2490 -935.30743596 L 2475 -909.32667385 L 2460 -935.30743596 L 2430 -935.30743596 L 2445 -961.28819807 L 2430 -987.26896018 L 2460 -987.26896018 L 2475 -1013.24972229 L 2460 -1039.2304844 L 2430 -1039.2304844 L 2445 -1065.21124651 L 2430 -1091.19200862 L 2460 -1091.19200862 L 2475 -1117.17277073 L 2490 -1091.19200862 L 2520 -1091.19200862 L 2535 -1117.17277073 L 2520 -1143.15353284 L 2550 -1143.15353284 L 2565 -1169.13429495 L 2550 -1195.11505706 L 2520 -1195.11505706 L 2535 -1221.09581917 L 2520 -1247.07658128 L 2490 -1247.07658128 L 2475 -1221.09581917 L 2460 -1247.07658128 L 2430 -1247.07658128 L 2445 -1273.05734339 L 2430 -1299.0381055 L 2460 -1299.0381055 L 2475 -1325.01886761 L 2460 -1350.99962972 L 2430 -1350.99962972 L 2445 -1376.98039183 L 2430 -1402.96115394 L 2460 -1402.96115394 L 2475 -1428.94191605 L 2490 -1402.96115394 L 2520 -1402.96115394 L 2535 -1428.94191605 L 2520 -1454.92267816 L 2550 -1454.92267816 L 2565 -1480.90344027 L 2580 -1454.92267816 L 2610 -1454.92267816 L 2595 -1428.94191605 L 2610 -1402.96115394 L 2640 -1402.96115394 L 2655 -1428.94191605 L 2670 -1402.96115394 L 2700 -1402.96115394 L 2715 -1428.94191605 L 2700 -1454.92267816 L 2730 -1454.92267816 L 2745 -1480.90344027 L 2730 -1506.88420238 L 2700 -1506.88420238 L 2715 -1532.86496449 L 2700 -1558.8457266 L 2730 -1558.8457266 L 2745 -1584.82648871 L 2760 -1558.8457266 L 2790 -1558.8457266 L 2805 -1584.82648871 L 2790 -1610.80725082 L 2820 -1610.80725082 L 2835 -1636.78801293 L 2850 -1610.80725082 L 2880 -1610.80725082 L 2865 -1584.82648871 L 2880 -1558.8457266 L 2910 -1558.8457266 L 2925 -1584.82648871 L 2940 -1558.8457266 L 2970 -1558.8457266 L 2955 -1532.86496449 L 2970 -1506.88420238 L 2940 -1506.88420238 L 2925 -1480.90344027 L 2940 -1454.92267816 L 2970 -1454.92267816 L 2955 -1428.94191605 L 2970 -1402.96115394 L 3000 -1402.96115394 L 3015 -1428.94191605 L 3030 -1402.96115394 L 3060 -1402.96115394 L 3075 -1428.94191605 L 3060 -1454.92267816 L 3090 -1454.92267816 L 3105 -1480.90344027 L 3120 -1454.92267816 L 3150 -1454.92267816 L 3135 -1428.94191605 L 3150 -1402.96115394 L 3180 -1402.96115394 L 3195 -1428.94191605 L 3210 -1402.96115394 L 3240 -1402.96115394 L 3255 -1428.94191605 L 3240 -1454.92267816 L 3270 -1454.92267816 L 3285 -1480.90344027 L 3270 -1506.88420238 L 3240 -1506.88420238 L 3255 -1532.86496449 L 3240 -1558.8457266 L 3270 -1558.8457266 L 3285 -1584.82648871 L 3300 -1558.8457266 L 3330 -1558.8457266 L 3345 -1584.82648871 L 3330 -1610.80725082 L 3360 -1610.80725082 L 3375 -1636.78801293 L 3360 -1662.76877504 L 3330 -1662.76877504 L 3345 -1688.74953715 L 3330 -1714.73029926 L 3300 -1714.73029926 L 3285 -1688.74953715 L 3270 -1714.73029926 L 3240 -1714.73029926 L 3255 -1740.71106137 L 3240 -1766.69182348 L 3270 -1766.69182348 L 3285 -1792.67258559 L 3270 -1818.6533477 L 3240 -1818.6533477 L 3255 -1844.63410981 L 3240 -1870.61487192 L 3270 -1870.61487192 L 3285 -1896.59563403 L 3300 -1870.61487192 L 3330 -1870.61487192 L 3345 -1896.59563403 L 3330 -1922.57639614 L 3360 -1922.57639614 L 3375 -1948.55715825 L 3390 -1922.57639614 L 3420 -1922.57639614 L 3405 -1896.59563403 L 3420 -1870.61487192 L 3450 -1870.61487192 L 3465 -1896.59563403 L 3480 -1870.61487192 L 3510 -1870.61487192 L 3525 -1896.59563403 L 3510 -1922.57639614 L 3540 -1922.57639614 L 3555 -1948.55715825 L 3540 -1974.53792036 L 3510 -1974.53792036 L 3525 -2000.51868247 L 3510 -2026.49944458 L 3540 -2026.49944458 L 3555 -2052.48020669 L 3570 -2026.49944458 L 3600 -2026.49944458 L 3615 -2052.48020669 L 3600 -2078.4609688 L 3630 -2078.4609688 L 3645 -2104.44173091 L 3660 -2078.4609688 L 3690 -2078.4609688 L 3675 -2052.48020669 L 3690 -2026.49944458 L 3720 -2026.49944458 L 3735 -2052.48020669 L 3750 -2026.49944458 L 3780 -2026.49944458 L 3765 -2000.51868247 L 3780 -1974.53792036 L 3750 -1974.53792036 L 3735 -1948.55715825 L 3750 -1922.57639614 L 3780 -1922.57639614 L 3765 -1896.59563403 L 3780 -1870.61487192 L 3810 -1870.61487192 L 3825 -1896.59563403 L 3840 -1870.61487192 L 3870 -1870.61487192 L 3885 -1896.59563403 L 3870 -1922.57639614 L 3900 -1922.57639614 L 3915 -1948.55715825 L 3930 -1922.57639614 L 3960 -1922.57639614 L 3945 -1896.59563403 L 3960 -1870.61487192 L 3990 -1870.61487192 L 4005 -1896.59563403 L 4020 -1870.61487192 L 4050 -1870.61487192 L 4035 -1844.63410981 L 4050 -1818.6533477 L 4020 -1818.6533477 L 4005 -1792.67258559 L 4020 -1766.69182348 L 4050 -1766.69182348 L 4035 -1740.71106137 L 4050 -1714.73029926 L 4020 -1714.73029926 L 4005 -1688.74953715 L 3990 -1714.73029926 L 3960 -1714.73029926 L 3945 -1688.74953715 L 3960 -1662.76877504 L 3930 -1662.76877504 L 3915 -1636.78801293 L 3930 -1610.80725082 L 3960 -1610.80725082 L 3945 -1584.82648871 L 3960 -1558.8457266 L 3990 -1558.8457266 L 4005 -1584.82648871 L 4020 -1558.8457266 L 4050 -1558.8457266 L 4035 -1532.86496449 L 4050 -1506.88420238 L 4020 -1506.88420238 L 4005 -1480.90344027 L 4020 -1454.92267816 L 4050 -1454.92267816 L 4035 -1428.94191605 L 4050 -1402.96115394 L 4080 -1402.96115394 L 4095 -1428.94191605 L 4110 -1402.96115394 L 4140 -1402.96115394 L 4155 -1428.94191605 L 4140 -1454.92267816 L 4170 -1454.92267816 L 4185 -1480.90344027 L 4200 -1454.92267816 L 4230 -1454.92267816 L 4215 -1428.94191605 L 4230 -1402.96115394 L 4260 -1402.96115394 L 4275 -1428.94191605 L 4290 -1402.96115394 L 4320 -1402.96115394 L 4335 -1428.94191605 L 4320 -1454.92267816 L 4350 -1454.92267816 L 4365 -1480.90344027 L 4350 -1506.88420238 L 4320 -1506.88420238 L 4335 -1532.86496449 L 4320 -1558.8457266 L 4350 -1558.8457266 L 4365 -1584.82648871 L 4380 -1558.8457266 L 4410 -1558.8457266 L 4425 -1584.82648871 L 4410 -1610.80725082 L 4440 -1610.80725082 L 4455 -1636.78801293 L 4470 -1610.80725082 L 4500 -1610.80725082 L 4485 -1584.82648871 L 4500 -1558.8457266 L 4530 -1558.8457266 L 4545 -1584.82648871 L 4560 -1558.8457266 L 4590 -1558.8457266 L 4575 -1532.86496449 L 4590 -1506.88420238 L 4560 -1506.88420238 L 4545 -1480.90344027 L 4560 -1454.92267816 L 4590 -1454.92267816 L 4575 -1428.94191605 L 4590 -1402.96115394 L 4620 -1402.96115394 L 4635 -1428.94191605 L 4650 -1402.96115394 L 4680 -1402.96115394 L 4695 -1428.94191605 L 4680 -1454.92267816 L 4710 -1454.92267816 L 4725 -1480.90344027 L 4740 -1454.92267816 L 4770 -1454.92267816 L 4755 -1428.94191605 L 4770 -1402.96115394 L 4800 -1402.96115394 L 4815 -1428.94191605 L 4830 -1402.96115394 L 4860 -1402.96115394 L 4845 -1376.98039183 L 4860 -1350.99962972 L 4830 -1350.99962972 L 4815 -1325.01886761 L 4830 -1299.0381055 L 4860 -1299.0381055 L 4845 -1273.05734339 L 4860 -1247.07658128 L 4830 -1247.07658128 L 4815 -1221.09581917 L 4800 -1247.07658128 L 4770 -1247.07658128 L 4755 -1221.09581917 L 4770 -1195.11505706 L 4740 -1195.11505706 L 4725 -1169.13429495 L 4740 -1143.15353284 L 4770 -1143.15353284 L 4755 -1117.17277073 L 4770 -1091.19200862 L 4800 -1091.19200862 L 4815 -1117.17277073 L 4830 -1091.19200862 L 4860 -1091.19200862 L 4845 -1065.21124651 L 4860 -1039.2304844 L 4830 -1039.2304844 L 4815 -1013.24972229 L 4830 -987.26896018 L 4860 -987.26896018 L 4845 -961.28819807 L 4860 -935.30743596 L 4830 -935.30743596 L 4815 -909.32667385 L 4800 -935.30743596 L 4770 -935.30743596 L 4755 -909.32667385 L 4770 -883.34591174 L 4740 -883.34591174 L 4725 -857.36514963 L 4710 -883.34591174 L 4680 -883.34591174 L 4695 -909.32667385 L 4680 -935.30743596 L 4650 -935.30743596 L 4635 -909.32667385 L 4620 -935.30743596 L 4590 -935.30743596 L 4575 -909.32667385 L 4590 -883.34591174 L 4560 -883.34591174 L 4545 -857.36514963 L 4560 -831.38438752 L 4590 -831.38438752 L 4575 -805.40362541 L 4590 -779.4228633 L 4560 -779.4228633 L 4545 -753.44210119 L 4530 -779.4228633 L 4500 -779.4228633 L 4485 -753.44210119 L 4500 -727.46133908 L 4470 -727.46133908 L 4455 -701.48057697 L 4470 -675.49981486 L 4500 -675.49981486 L 4485 -649.51905275 L 4500 -623.53829064 L 4530 -623.53829064 L 4545 -649.51905275 L 4560 -623.53829064 L 4590 -623.53829064 L 4575 -597.55752853 L 4590 -571.57676642 L 4560 -571.57676642 L 4545 -545.59600431 L 4560 -519.6152422 L 4590 -519.6152422 L 4575 -493.63448009 L 4590 -467.65371798 L 4620 -467.65371798 L 4635 -493.63448009 L 4650 -467.65371798 L 4680 -467.65371798 L 4695 -493.63448009 L 4680 -519.6152422 L 4710 -519.6152422 L 4725 -545.59600431 L 4740 -519.6152422 L 4770 -519.6152422 L 4755 -493.63448009 L 4770 -467.65371798 L 4800 -467.65371798 L 4815 -493.63448009 L 4830 -467.65371798 L 4860 -467.65371798 L 4845 -441.67295587 L 4860 -415.69219376 L 4830 -415.69219376 L 4815 -389.71143165 L 4830 -363.73066954 L 4860 -363.73066954 L 4845 -337.74990743 L 4860 -311.76914532 L 4830 -311.76914532 L 4815 -285.78838321 L 4800 -311.76914532 L 4770 -311.76914532 L 4755 -285.78838321 L 4770 -259.8076211 L 4740 -259.8076211 L 4725 -233.82685899 L 4740 -207.84609688 L 4770 -207.84609688 L 4755 -181.86533477 L 4770 -155.88457266 L 4800 -155.88457266 L 4815 -181.86533477 L 4830 -155.88457266 L 4860 -155.88457266 L 4845 -129.90381055 L 4860 -103.92304844 L 4830 -103.92304844 L 4815 -77.94228633 L 4830 -51.96152422 L 4860 -51.96152422 L 4845 -25.98076211 L 4860 0 L 4890 0 L 4905 -25.98076211 L 4920 0 L 4950 0 L 4965 -25.98076211 L 4950 -51.96152422 L 4980 -51.96152422 L 4995 -77.94228633 L 5010 -51.96152422 L 5040 -51.96152422 L 5025 -25.98076211 L 5040 0 L 5070 0 L 5085 -25.98076211 L 5100 0 L 5130 0 L 5145 -25.98076211 L 5130 -51.96152422 L 5160 -51.96152422 L 5175 -77.94228633 L 5160 -103.92304844 L 5130 -103.92304844 L 5145 -129.90381055 L 5130 -155.88457266 L 5160 -155.88457266 L 5175 -181.86533477 L 5190 -155.88457266 L 5220 -155.88457266 L 5235 -181.86533477 L 5220 -207.84609688 L 5250 -207.84609688 L 5265 -233.82685899 L 5280 -207.84609688 L 5310 -207.84609688 L 5295 -181.86533477 L 5310 -155.88457266 L 5340 -155.88457266 L 5355 -181.86533477 L 5370 -155.88457266 L 5400 -155.88457266 L 5385 -129.90381055 L 5400 -103.92304844 L 5370 -103.92304844 L 5355 -77.94228633 L 5370 -51.96152422 L 5400 -51.96152422 L 5385 -25.98076211 L 5400 0 L 5430 0 L 5445 -25.98076211 L 5460 0 L 5490 0 L 5505 -25.98076211 L 5490 -51.96152422 L 5520 -51.96152422 L 5535 -77.94228633 L 5550 -51.96152422 L 5580 -51.96152422 L 5565 -25.98076211 L 5580 0 L 5610 0 L 5625 -25.98076211 L 5640 0 L 5670 0 L 5685 -25.98076211 L 5670 -51.96152422 L 5700 -51.96152422 L 5715 -77.94228633 L 5700 -103.92304844 L 5670 -103.92304844 L 5685 -129.90381055 L 5670 -155.88457266 L 5700 -155.88457266 L 5715 -181.86533477 L 5730 -155.88457266 L 5760 -155.88457266 L 5775 -181.86533477 L 5760 -207.84609688 L 5790 -207.84609688 L 5805 -233.82685899 L 5790 -259.8076211 L 5760 -259.8076211 L 5775 -285.78838321 L 5760 -311.76914532 L 5730 -311.76914532 L 5715 -285.78838321 L 5700 -311.76914532 L 5670 -311.76914532 L 5685 -337.74990743 L 5670 -363.73066954 L 5700 -363.73066954 L 5715 -389.71143165 L 5700 -415.69219376 L 5670 -415.69219376 L 5685 -441.67295587 L 5670 -467.65371798 L 5700 -467.65371798 L 5715 -493.63448009 L 5730 -467.65371798 L 5760 -467.65371798 L 5775 -493.63448009 L 5760 -519.6152422 L 5790 -519.6152422 L 5805 -545.59600431 L 5820 -519.6152422 L 5850 -519.6152422 L 5835 -493.63448009 L 5850 -467.65371798 L 5880 -467.65371798 L 5895 -493.63448009 L 5910 -467.65371798 L 5940 -467.65371798 L 5955 -493.63448009 L 5940 -519.6152422 L 5970 -519.6152422 L 5985 -545.59600431 L 5970 -571.57676642 L 5940 -571.57676642 L 5955 -597.55752853 L 5940 -623.53829064 L 5970 -623.53829064 L 5985 -649.51905275 L 6000 -623.53829064 L 6030 -623.53829064 L 6045 -649.51905275 L 6030 -675.49981486 L 6060 -675.49981486 L 6075 -701.48057697 L 6090 -675.49981486 L 6120 -675.49981486 L 6105 -649.51905275 L 6120 -623.53829064 L 6150 -623.53829064 L 6165 -649.51905275 L 6180 -623.53829064 L 6210 -623.53829064 L 6195 -597.55752853 L 6210 -571.57676642 L 6180 -571.57676642 L 6165 -545.59600431 L 6180 -519.6152422 L 6210 -519.6152422 L 6195 -493.63448009 L 6210 -467.65371798 L 6240 -467.65371798 L 6255 -493.63448009 L 6270 -467.65371798 L 6300 -467.65371798 L 6315 -493.63448009 L 6300 -519.6152422 L 6330 -519.6152422 L 6345 -545.59600431 L 6360 -519.6152422 L 6390 -519.6152422 L 6375 -493.63448009 L 6390 -467.65371798 L 6420 -467.65371798 L 6435 -493.63448009 L 6450 -467.65371798 L 6480 -467.65371798 L 6465 -441.67295587 L 6480 -415.69219376 L 6450 -415.69219376 L 6435 -389.71143165 L 6450 -363.73066954 L 6480 -363.73066954 L 6465 -337.74990743 L 6480 -311.76914532 L 6450 -311.76914532 L 6435 -285.78838321 L 6420 -311.76914532 L 6390 -311.76914532 L 6375 -285.78838321 L 6390 -259.8076211 L 6360 -259.8076211 L 6345 -233.82685899 L 6360 -207.84609688 L 6390 -207.84609688 L 6375 -181.86533477 L 6390 -155.88457266 L 6420 -155.88457266 L 6435 -181.86533477 L 6450 -155.88457266 L 6480 -155.88457266 L 6465 -129.90381055 L 6480 -103.92304844 L 6450 -103.92304844 L 6435 -77.94228633 L 6450 -51.96152422 L 6480 -51.96152422 L 6465 -25.98076211 L 6480 0 L 6510 0 L 6525 -25.98076211 L 6540 0 L 6570 0 L 6585 -25.98076211 L 6570 -51.96152422 L 6600 -51.96152422 L 6615 -77.94228633 L 6630 -51.96152422 L 6660 -51.96152422 L 6645 -25.98076211 L 6660 0 L 6690 0 L 6705 -25.98076211 L 6720 0 L 6750 0 L 6765 -25.98076211 L 6750 -51.96152422 L 6780 -51.96152422 L 6795 -77.94228633 L 6780 -103.92304844 L 6750 -103.92304844 L 6765 -129.90381055 L 6750 -155.88457266 L 6780 -155.88457266 L 6795 -181.86533477 L 6810 -155.88457266 L 6840 -155.88457266 L 6855 -181.86533477 L 6840 -207.84609688 L 6870 -207.84609688 L 6885 -233.82685899 L 6900 -207.84609688 L 6930 -207.84609688 L 6915 -181.86533477 L 6930 -155.88457266 L 6960 -155.88457266 L 6975 -181.86533477 L 6990 -155.88457266 L 7020 -155.88457266 L 7005 -129.90381055 L 7020 -103.92304844 L 6990 -103.92304844 L 6975 -77.94228633 L 6990 -51.96152422 L 7020 -51.96152422 L 7005 -25.98076211 L 7020 0 L 7050 0 L 7065 -25.98076211 L 7080 0 L 7110 0 L 7125 -25.98076211 L 7110 -51.96152422 L 7140 -51.96152422 L 7155 -77.94228633 L 7170 -51.96152422 L 7200 -51.96152422 L 7185 -25.98076211 L 7200 0 L 7230 0 L 7245 -25.98076211 L 7260 0 L 7290 0 L 7275 25.98076211 L 7290 51.96152422 L 7260 51.96152422 L 7245 77.94228633 L 7260 103.92304844 L 7290 103.92304844 L 7275 129.90381055 L 7290 155.88457266 L 7260 155.88457266 L 7245 181.86533477 L 7230 155.88457266 L 7200 155.88457266 L 7185 181.86533477 L 7200 207.84609688 L 7170 207.84609688 L 7155 233.82685899 L 7170 259.8076211 L 7200 259.8076211 L 7185 285.78838321 L 7200 311.76914532 L 7230 311.76914532 L 7245 285.78838321 L 7260 311.76914532 L 7290 311.76914532 L 7275 337.74990743 L 7290 363.73066954 L 7260 363.73066954 L 7245 389.71143165 L 7260 415.69219376 L 7290 415.69219376 L 7275 441.67295587 L 7290 467.65371798 L 7260 467.65371798 L 7245 493.63448009 L 7230 467.65371798 L 7200 467.65371798 L 7185 493.63448009 L 7200 519.6152422 L 7170 519.6152422 L 7155 545.59600431 L 7140 519.6152422 L 7110 519.6152422 L 7125 493.63448009 L 7110 467.65371798 L 7080 467.65371798 L 7065 493.63448009 L 7050 467.65371798 L 7020 467.65371798 L 7005 493.63448009 L 7020 519.6152422 L 6990 519.6152422 L 6975 545.59600431 L 6990 571.57676642 L 7020 571.57676642 L 7005 597.55752853 L 7020 623.53829064 L 6990 623.53829064 L 6975 649.51905275 L 6960 623.53829064 L 6930 623.53829064 L 6915 649.51905275 L 6930 675.49981486 L 6900 675.49981486 L 6885 701.48057697 L 6900 727.46133908 L 6930 727.46133908 L 6915 753.44210119 L 6930 779.4228633 L 6960 779.4228633 L 6975 753.44210119 L 6990 779.4228633 L 7020 779.4228633 L 7005 805.40362541 L 7020 831.38438752 L 6990 831.38438752 L 6975 857.36514963 L 6990 883.34591174 L 7020 883.34591174 L 7005 909.32667385 L 7020 935.30743596 L 7050 935.30743596 L 7065 909.32667385 L 7080 935.30743596 L 7110 935.30743596 L 7125 909.32667385 L 7110 883.34591174 L 7140 883.34591174 L 7155 857.36514963 L 7170 883.34591174 L 7200 883.34591174 L 7185 909.32667385 L 7200 935.30743596 L 7230 935.30743596 L 7245 909.32667385 L 7260 935.30743596 L 7290 935.30743596 L 7275 961.28819807 L 7290 987.26896018 L 7260 987.26896018 L 7245 1013.24972229 L 7260 1039.2304844 L 7290 1039.2304844 L 7275 1065.21124651 L 7290 1091.19200862 L 7260 1091.19200862 L 7245 1117.17277073 L 7230 1091.19200862 L 7200 1091.19200862 L 7185 1117.17277073 L 7200 1143.15353284 L 7170 1143.15353284 L 7155 1169.13429495 L 7170 1195.11505706 L 7200 1195.11505706 L 7185 1221.09581917 L 7200 1247.07658128 L 7230 1247.07658128 L 7245 1221.09581917 L 7260 1247.07658128 L 7290 1247.07658128 L 7275 1273.05734339 L 7290 1299.0381055 L 7260 1299.0381055 L 7245 1325.01886761 L 7260 1350.99962972 L 7290 1350.99962972 L 7275 1376.98039183 L 7290 1402.96115394 L 7260 1402.96115394 L 7245 1428.94191605 L 7230 1402.96115394 L 7200 1402.96115394 L 7185 1428.94191605 L 7200 1454.92267816 L 7170 1454.92267816 L 7155 1480.90344027 L 7140 1454.92267816 L 7110 1454.92267816 L 7125 1428.94191605 L 7110 1402.96115394 L 7080 1402.96115394 L 7065 1428.94191605 L 7050 1402.96115394 L 7020 1402.96115394 L 7005 1428.94191605 L 7020 1454.92267816 L 6990 1454.92267816 L 6975 1480.90344027 L 6990 1506.88420238 L 7020 1506.88420238 L 7005 1532.86496449 L 7020 1558.8457266 L 6990 1558.8457266 L 6975 1584.82648871 L 6960 1558.8457266 L 6930 1558.8457266 L 6915 1584.82648871 L 6930 1610.80725082 L 6900 1610.80725082 L 6885 1636.78801293 L 6870 1610.80725082 L 6840 1610.80725082 L 6855 1584.82648871 L 6840 1558.8457266 L 6810 1558.8457266 L 6795 1584.82648871 L 6780 1558.8457266 L 6750 1558.8457266 L 6765 1532.86496449 L 6750 1506.88420238 L 6780 1506.88420238 L 6795 1480.90344027 L 6780 1454.92267816 L 6750 1454.92267816 L 6765 1428.94191605 L 6750 1402.96115394 L 6720 1402.96115394 L 6705 1428.94191605 L 6690 1402.96115394 L 6660 1402.96115394 L 6645 1428.94191605 L 6660 1454.92267816 L 6630 1454.92267816 L 6615 1480.90344027 L 6600 1454.92267816 L 6570 1454.92267816 L 6585 1428.94191605 L 6570 1402.96115394 L 6540 1402.96115394 L 6525 1428.94191605 L 6510 1402.96115394 L 6480 1402.96115394 L 6465 1428.94191605 L 6480 1454.92267816 L 6450 1454.92267816 L 6435 1480.90344027 L 6450 1506.88420238 L 6480 1506.88420238 L 6465 1532.86496449 L 6480 1558.8457266 L 6450 1558.8457266 L 6435 1584.82648871 L 6420 1558.8457266 L 6390 1558.8457266 L 6375 1584.82648871 L 6390 1610.80725082 L 6360 1610.80725082 L 6345 1636.78801293 L 6360 1662.76877504 L 6390 1662.76877504 L 6375 1688.74953715 L 6390 1714.73029926 L 6420 1714.73029926 L 6435 1688.74953715 L 6450 1714.73029926 L 6480 1714.73029926 L 6465 1740.71106137 L 6480 1766.69182348 L 6450 1766.69182348 L 6435 1792.67258559 L 6450 1818.6533477 L 6480 1818.6533477 L 6465 1844.63410981 L 6480 1870.61487192 L 6450 1870.61487192 L 6435 1896.59563403 L 6420 1870.61487192 L 6390 1870.61487192 L 6375 1896.59563403 L 6390 1922.57639614 L 6360 1922.57639614 L 6345 1948.55715825 L 6330 1922.57639614 L 6300 1922.57639614 L 6315 1896.59563403 L 6300 1870.61487192 L 6270 1870.61487192 L 6255 1896.59563403 L 6240 1870.61487192 L 6210 1870.61487192 L 6195 1896.59563403 L 6210 1922.57639614 L 6180 1922.57639614 L 6165 1948.55715825 L 6180 1974.53792036 L 6210 1974.53792036 L 6195 2000.51868247 L 6210 2026.49944458 L 6180 2026.49944458 L 6165 2052.48020669 L 6150 2026.49944458 L 6120 2026.49944458 L 6105 2052.48020669 L 6120 2078.4609688 L 6090 2078.4609688 L 6075 2104.44173091 L 6090 2130.42249302 L 6120 2130.42249302 L 6105 2156.40325513 L 6120 2182.38401724 L 6150 2182.38401724 L 6165 2156.40325513 L 6180 2182.38401724 L 6210 2182.38401724 L 6195 2208.36477935 L 6210 2234.34554146 L 6180 2234.34554146 L 6165 2260.32630357 L 6180 2286.30706568 L 6210 2286.30706568 L 6195 2312.28782779 L 6210 2338.2685899 L 6240 2338.2685899 L 6255 2312.28782779 L 6270 2338.2685899 L 6300 2338.2685899 L 6315 2312.28782779 L 6300 2286.30706568 L 6330 2286.30706568 L 6345 2260.32630357 L 6360 2286.30706568 L 6390 2286.30706568 L 6375 2312.28782779 L 6390 2338.2685899 L 6420 2338.2685899 L 6435 2312.28782779 L 6450 2338.2685899 L 6480 2338.2685899 L 6465 2364.24935201 L 6480 2390.23011412 L 6450 2390.23011412 L 6435 2416.21087623 L 6450 2442.19163834 L 6480 2442.19163834 L 6465 2468.17240045 L 6480 2494.15316256 L 6450 2494.15316256 L 6435 2520.13392467 L 6420 2494.15316256 L 6390 2494.15316256 L 6375 2520.13392467 L 6390 2546.11468678 L 6360 2546.11468678 L 6345 2572.09544889 L 6360 2598.076211 L 6390 2598.076211 L 6375 2624.05697311 L 6390 2650.03773522 L 6420 2650.03773522 L 6435 2624.05697311 L 6450 2650.03773522 L 6480 2650.03773522 L 6465 2676.01849733 L 6480 2701.99925944 L 6450 2701.99925944 L 6435 2727.98002155 L 6450 2753.96078366 L 6480 2753.96078366 L 6465 2779.94154577 L 6480 2805.92230788 L 6510 2805.92230788 L 6525 2779.94154577 L 6540 2805.92230788 L 6570 2805.92230788 L 6585 2779.94154577 L 6570 2753.96078366 L 6600 2753.96078366 L 6615 2727.98002155 L 6630 2753.96078366 L 6660 2753.96078366 L 6645 2779.94154577 L 6660 2805.92230788 L 6690 2805.92230788 L 6705 2779.94154577 L 6720 2805.92230788 L 6750 2805.92230788 L 6765 2779.94154577 L 6750 2753.96078366 L 6780 2753.96078366 L 6795 2727.98002155 L 6780 2701.99925944 L 6750 2701.99925944 L 6765 2676.01849733 L 6750 2650.03773522 L 6780 2650.03773522 L 6795 2624.05697311 L 6810 2650.03773522 L 6840 2650.03773522 L 6855 2624.05697311 L 6840 2598.076211 L 6870 2598.076211 L 6885 2572.09544889 L 6900 2598.076211 L 6930 2598.076211 L 6915 2624.05697311 L 6930 2650.03773522 L 6960 2650.03773522 L 6975 2624.05697311 L 6990 2650.03773522 L 7020 2650.03773522 L 7005 2676.01849733 L 7020 2701.99925944 L 6990 2701.99925944 L 6975 2727.98002155 L 6990 2753.96078366 L 7020 2753.96078366 L 7005 2779.94154577 L 7020 2805.92230788 L 7050 2805.92230788 L 7065 2779.94154577 L 7080 2805.92230788 L 7110 2805.92230788 L 7125 2779.94154577 L 7110 2753.96078366 L 7140 2753.96078366 L 7155 2727.98002155 L 7170 2753.96078366 L 7200 2753.96078366 L 7185 2779.94154577 L 7200 2805.92230788 L 7230 2805.92230788 L 7245 2779.94154577 L 7260 2805.92230788 L 7290 2805.92230788 L 7275 2831.90306999 L 7290 2857.8838321 L 7260 2857.8838321 L 7245 2883.86459421 L 7260 2909.84535632 L 7290 2909.84535632 L 7275 2935.82611843 L 7290 2961.80688054 L 7260 2961.80688054 L 7245 2987.78764265 L 7230 2961.80688054 L 7200 2961.80688054 L 7185 2987.78764265 L 7200 3013.76840476 L 7170 3013.76840476 L 7155 3039.74916687 L 7170 3065.72992898 L 7200 3065.72992898 L 7185 3091.71069109 L 7200 3117.6914532 L 7230 3117.6914532 L 7245 3091.71069109 L 7260 3117.6914532 L 7290 3117.6914532 L 7275 3143.67221531 L 7290 3169.65297742 L 7260 3169.65297742 L 7245 3195.63373953 L 7260 3221.61450164 L 7290 3221.61450164 L 7275 3247.59526375 L 7290 3273.57602586 L 7260 3273.57602586 L 7245 3299.55678797 L 7230 3273.57602586 L 7200 3273.57602586 L 7185 3299.55678797 L 7200 3325.53755008 L 7170 3325.53755008 L 7155 3351.51831219 L 7140 3325.53755008 L 7110 3325.53755008 L 7125 3299.55678797 L 7110 3273.57602586 L 7080 3273.57602586 L 7065 3299.55678797 L 7050 3273.57602586 L 7020 3273.57602586 L 7005 3299.55678797 L 7020 3325.53755008 L 6990 3325.53755008 L 6975 3351.51831219 L 6990 3377.4990743 L 7020 3377.4990743 L 7005 3403.47983641 L 7020 3429.46059852 L 6990 3429.46059852 L 6975 3455.44136063 L 6960 3429.46059852 L 6930 3429.46059852 L 6915 3455.44136063 L 6930 3481.42212274 L 6900 3481.42212274 L 6885 3507.40288485 L 6900 3533.38364696 L 6930 3533.38364696 L 6915 3559.36440907 L 6930 3585.34517118 L 6960 3585.34517118 L 6975 3559.36440907 L 6990 3585.34517118 L 7020 3585.34517118 L 7005 3611.32593329 L 7020 3637.3066954 L 6990 3637.3066954 L 6975 3663.28745751 L 6990 3689.26821962 L 7020 3689.26821962 L 7005 3715.24898173 L 7020 3741.22974384 L 7050 3741.22974384 L 7065 3715.24898173 L 7080 3741.22974384 L 7110 3741.22974384 L 7125 3715.24898173 L 7110 3689.26821962 L 7140 3689.26821962 L 7155 3663.28745751 L 7170 3689.26821962 L 7200 3689.26821962 L 7185 3715.24898173 L 7200 3741.22974384 L 7230 3741.22974384 L 7245 3715.24898173 L 7260 3741.22974384 L 7290 3741.22974384 L 7275 3767.21050595 L 7290 3793.19126806 L 7260 3793.19126806 L 7245 3819.17203017 L 7260 3845.15279228 L 7290 3845.15279228 L 7275 3871.13355439 L 7290 3897.1143165 L 7260 3897.1143165 L 7245 3923.09507861 L 7230 3897.1143165 L 7200 3897.1143165 L 7185 3923.09507861 L 7200 3949.07584072 L 7170 3949.07584072 L 7155 3975.05660283 L 7170 4001.03736494 L 7200 4001.03736494 L 7185 4027.01812705 L 7200 4052.99888916 L 7230 4052.99888916 L 7245 4027.01812705 L 7260 4052.99888916 L 7290 4052.99888916 L 7275 4078.97965127 L 7290 4104.96041338 L 7260 4104.96041338 L 7245 4130.94117549 L 7260 4156.9219376 L 7290 4156.9219376 L 7275 4182.90269971 L 7290 4208.88346182 L 7260 4208.88346182 L 7245 4234.86422393 L 7230 4208.88346182 L 7200 4208.88346182 L 7185 4234.86422393 L 7200 4260.84498604 L 7170 4260.84498604 L 7155 4286.82574815 L 7140 4260.84498604 L 7110 4260.84498604 L 7125 4234.86422393 L 7110 4208.88346182 L 7080 4208.88346182 L 7065 4234.86422393 L 7050 4208.88346182 L 7020 4208.88346182 L 7005 4234.86422393 L 7020 4260.84498604 L 6990 4260.84498604 L 6975 4286.82574815 L 6990 4312.80651026 L 7020 4312.80651026 L 7005 4338.78727237 L 7020 4364.76803448 L 6990 4364.76803448 L 6975 4390.74879659 L 6960 4364.76803448 L 6930 4364.76803448 L 6915 4390.74879659 L 6930 4416.7295587 L 6900 4416.7295587 L 6885 4442.71032081 L 6870 4416.7295587 L 6840 4416.7295587 L 6855 4390.74879659 L 6840 4364.76803448 L 6810 4364.76803448 L 6795 4390.74879659 L 6780 4364.76803448 L 6750 4364.76803448 L 6765 4338.78727237 L 6750 4312.80651026 L 6780 4312.80651026 L 6795 4286.82574815 L 6780 4260.84498604 L 6750 4260.84498604 L 6765 4234.86422393 L 6750 4208.88346182 L 6720 4208.88346182 L 6705 4234.86422393 L 6690 4208.88346182 L 6660 4208.88346182 L 6645 4234.86422393 L 6660 4260.84498604 L 6630 4260.84498604 L 6615 4286.82574815 L 6600 4260.84498604 L 6570 4260.84498604 L 6585 4234.86422393 L 6570 4208.88346182 L 6540 4208.88346182 L 6525 4234.86422393 L 6510 4208.88346182 L 6480 4208.88346182 L 6465 4234.86422393 L 6480 4260.84498604 L 6450 4260.84498604 L 6435 4286.82574815 L 6450 4312.80651026 L 6480 4312.80651026 L 6465 4338.78727237 L 6480 4364.76803448 L 6450 4364.76803448 L 6435 4390.74879659 L 6420 4364.76803448 L 6390 4364.76803448 L 6375 4390.74879659 L 6390 4416.7295587 L 6360 4416.7295587 L 6345 4442.71032081 L 6360 4468.69108292 L 6390 4468.69108292 L 6375 4494.67184503 L 6390 4520.65260714 L 6420 4520.65260714 L 6435 4494.67184503 L 6450 4520.65260714 L 6480 4520.65260714 L 6465 4546.63336925 L 6480 4572.61413136 L 6450 4572.61413136 L 6435 4598.59489347 L 6450 4624.57565558 L 6480 4624.57565558 L 6465 4650.55641769 L 6480 4676.5371798 L 6450 4676.5371798 L 6435 4702.51794191 L 6420 4676.5371798 L 6390 4676.5371798 L 6375 4702.51794191 L 6390 4728.49870402 L 6360 4728.49870402 L 6345 4754.47946613 L 6330 4728.49870402 L 6300 4728.49870402 L 6315 4702.51794191 L 6300 4676.5371798 L 6270 4676.5371798 L 6255 4702.51794191 L 6240 4676.5371798 L 6210 4676.5371798 L 6195 4702.51794191 L 6210 4728.49870402 L 6180 4728.49870402 L 6165 4754.47946613 L 6180 4780.46022824 L 6210 4780.46022824 L 6195 4806.44099035 L 6210 4832.42175246 L 6180 4832.42175246 L 6165 4858.40251457 L 6150 4832.42175246 L 6120 4832.42175246 L 6105 4858.40251457 L 6120 4884.38327668 L 6090 4884.38327668 L 6075 4910.36403879 L 6060 4884.38327668 L 6030 4884.38327668 L 6045 4858.40251457 L 6030 4832.42175246 L 6000 4832.42175246 L 5985 4858.40251457 L 5970 4832.42175246 L 5940 4832.42175246 L 5955 4806.44099035 L 5940 4780.46022824 L 5970 4780.46022824 L 5985 4754.47946613 L 5970 4728.49870402 L 5940 4728.49870402 L 5955 4702.51794191 L 5940 4676.5371798 L 5910 4676.5371798 L 5895 4702.51794191 L 5880 4676.5371798 L 5850 4676.5371798 L 5835 4702.51794191 L 5850 4728.49870402 L 5820 4728.49870402 L 5805 4754.47946613 L 5790 4728.49870402 L 5760 4728.49870402 L 5775 4702.51794191 L 5760 4676.5371798 L 5730 4676.5371798 L 5715 4702.51794191 L 5700 4676.5371798 L 5670 4676.5371798 L 5685 4650.55641769 L 5670 4624.57565558 L 5700 4624.57565558 L 5715 4598.59489347 L 5700 4572.61413136 L 5670 4572.61413136 L 5685 4546.63336925 L 5670 4520.65260714 L 5700 4520.65260714 L 5715 4494.67184503 L 5730 4520.65260714 L 5760 4520.65260714 L 5775 4494.67184503 L 5760 4468.69108292 L 5790 4468.69108292 L 5805 4442.71032081 L 5790 4416.7295587 L 5760 4416.7295587 L 5775 4390.74879659 L 5760 4364.76803448 L 5730 4364.76803448 L 5715 4390.74879659 L 5700 4364.76803448 L 5670 4364.76803448 L 5685 4338.78727237 L 5670 4312.80651026 L 5700 4312.80651026 L 5715 4286.82574815 L 5700 4260.84498604 L 5670 4260.84498604 L 5685 4234.86422393 L 5670 4208.88346182 L 5640 4208.88346182 L 5625 4234.86422393 L 5610 4208.88346182 L 5580 4208.88346182 L 5565 4234.86422393 L 5580 4260.84498604 L 5550 4260.84498604 L 5535 4286.82574815 L 5520 4260.84498604 L 5490 4260.84498604 L 5505 4234.86422393 L 5490 4208.88346182 L 5460 4208.88346182 L 5445 4234.86422393 L 5430 4208.88346182 L 5400 4208.88346182 L 5385 4234.86422393 L 5400 4260.84498604 L 5370 4260.84498604 L 5355 4286.82574815 L 5370 4312.80651026 L 5400 4312.80651026 L 5385 4338.78727237 L 5400 4364.76803448 L 5370 4364.76803448 L 5355 4390.74879659 L 5340 4364.76803448 L 5310 4364.76803448 L 5295 4390.74879659 L 5310 4416.7295587 L 5280 4416.7295587 L 5265 4442.71032081 L 5250 4416.7295587 L 5220 4416.7295587 L 5235 4390.74879659 L 5220 4364.76803448 L 5190 4364.76803448 L 5175 4390.74879659 L 5160 4364.76803448 L 5130 4364.76803448 L 5145 4338.78727237 L 5130 4312.80651026 L 5160 4312.80651026 L 5175 4286.82574815 L 5160 4260.84498604 L 5130 4260.84498604 L 5145 4234.86422393 L 5130 4208.88346182 L 5100 4208.88346182 L 5085 4234.86422393 L 5070 4208.88346182 L 5040 4208.88346182 L 5025 4234.86422393 L 5040 4260.84498604 L 5010 4260.84498604 L 4995 4286.82574815 L 4980 4260.84498604 L 4950 4260.84498604 L 4965 4234.86422393 L 4950 4208.88346182 L 4920 4208.88346182 L 4905 4234.86422393 L 4890 4208.88346182 L 4860 4208.88346182 L 4845 4234.86422393 L 4860 4260.84498604 L 4830 4260.84498604 L 4815 4286.82574815 L 4830 4312.80651026 L 4860 4312.80651026 L 4845 4338.78727237 L 4860 4364.76803448 L 4830 4364.76803448 L 4815 4390.74879659 L 4800 4364.76803448 L 4770 4364.76803448 L 4755 4390.74879659 L 4770 4416.7295587 L 4740 4416.7295587 L 4725 4442.71032081 L 4740 4468.69108292 L 4770 4468.69108292 L 4755 4494.67184503 L 4770 4520.65260714 L 4800 4520.65260714 L 4815 4494.67184503 L 4830 4520.65260714 L 4860 4520.65260714 L 4845 4546.63336925 L 4860 4572.61413136 L 4830 4572.61413136 L 4815 4598.59489347 L 4830 4624.57565558 L 4860 4624.57565558 L 4845 4650.55641769 L 4860 4676.5371798 L 4830 4676.5371798 L 4815 4702.51794191 L 4800 4676.5371798 L 4770 4676.5371798 L 4755 4702.51794191 L 4770 4728.49870402 L 4740 4728.49870402 L 4725 4754.47946613 L 4710 4728.49870402 L 4680 4728.49870402 L 4695 4702.51794191 L 4680 4676.5371798 L 4650 4676.5371798 L 4635 4702.51794191 L 4620 4676.5371798 L 4590 4676.5371798 L 4575 4702.51794191 L 4590 4728.49870402 L 4560 4728.49870402 L 4545 4754.47946613 L 4560 4780.46022824 L 4590 4780.46022824 L 4575 4806.44099035 L 4590 4832.42175246 L 4560 4832.42175246 L 4545 4858.40251457 L 4530 4832.42175246 L 4500 4832.42175246 L 4485 4858.40251457 L 4500 4884.38327668 L 4470 4884.38327668 L 4455 4910.36403879 L 4470 4936.3448009 L 4500 4936.3448009 L 4485 4962.32556301 L 4500 4988.30632512 L 4530 4988.30632512 L 4545 4962.32556301 L 4560 4988.30632512 L 4590 4988.30632512 L 4575 5014.28708723 L 4590 5040.26784934 L 4560 5040.26784934 L 4545 5066.24861145 L 4560 5092.22937356 L 4590 5092.22937356 L 4575 5118.21013567 L 4590 5144.19089778 L 4620 5144.19089778 L 4635 5118.21013567 L 4650 5144.19089778 L 4680 5144.19089778 L 4695 5118.21013567 L 4680 5092.22937356 L 4710 5092.22937356 L 4725 5066.24861145 L 4740 5092.22937356 L 4770 5092.22937356 L 4755 5118.21013567 L 4770 5144.19089778 L 4800 5144.19089778 L 4815 5118.21013567 L 4830 5144.19089778 L 4860 5144.19089778 L 4845 5170.17165989 L 4860 5196.152422 L 4830 5196.152422 L 4815 5222.13318411 L 4830 5248.11394622 L 4860 5248.11394622 L 4845 5274.09470833 L 4860 5300.07547044 L 4830 5300.07547044 L 4815 5326.05623255 L 4800 5300.07547044 L 4770 5300.07547044 L 4755 5326.05623255 L 4770 5352.03699466 L 4740 5352.03699466 L 4725 5378.01775677 L 4740 5403.99851888 L 4770 5403.99851888 L 4755 5429.97928099 L 4770 5455.9600431 L 4800 5455.9600431 L 4815 5429.97928099 L 4830 5455.9600431 L 4860 5455.9600431 L 4845 5481.94080521 L 4860 5507.92156732 L 4830 5507.92156732 L 4815 5533.90232943 L 4830 5559.88309154 L 4860 5559.88309154 L 4845 5585.86385365 L 4860 5611.84461576 L 4830 5611.84461576 L 4815 5637.82537787 L 4800 5611.84461576 L 4770 5611.84461576 L 4755 5637.82537787 L 4770 5663.80613998 L 4740 5663.80613998 L 4725 5689.78690209 L 4710 5663.80613998 L 4680 5663.80613998 L 4695 5637.82537787 L 4680 5611.84461576 L 4650 5611.84461576 L 4635 5637.82537787 L 4620 5611.84461576 L 4590 5611.84461576 L 4575 5637.82537787 L 4590 5663.80613998 L 4560 5663.80613998 L 4545 5689.78690209 L 4560 5715.7676642 L 4590 5715.7676642 L 4575 5741.74842631 L 4590 5767.72918842 L 4560 5767.72918842 L 4545 5793.70995053 L 4530 5767.72918842 L 4500 5767.72918842 L 4485 5793.70995053 L 4500 5819.69071264 L 4470 5819.69071264 L 4455 5845.67147475 L 4440 5819.69071264 L 4410 5819.69071264 L 4425 5793.70995053 L 4410 5767.72918842 L 4380 5767.72918842 L 4365 5793.70995053 L 4350 5767.72918842 L 4320 5767.72918842 L 4335 5741.74842631 L 4320 5715.7676642 L 4350 5715.7676642 L 4365 5689.78690209 L 4350 5663.80613998 L 4320 5663.80613998 L 4335 5637.82537787 L 4320 5611.84461576 L 4290 5611.84461576 L 4275 5637.82537787 L 4260 5611.84461576 L 4230 5611.84461576 L 4215 5637.82537787 L 4230 5663.80613998 L 4200 5663.80613998 L 4185 5689.78690209 L 4170 5663.80613998 L 4140 5663.80613998 L 4155 5637.82537787 L 4140 5611.84461576 L 4110 5611.84461576 L 4095 5637.82537787 L 4080 5611.84461576 L 4050 5611.84461576 L 4035 5637.82537787 L 4050 5663.80613998 L 4020 5663.80613998 L 4005 5689.78690209 L 4020 5715.7676642 L 4050 5715.7676642 L 4035 5741.74842631 L 4050 5767.72918842 L 4020 5767.72918842 L 4005 5793.70995053 L 3990 5767.72918842 L 3960 5767.72918842 L 3945 5793.70995053 L 3960 5819.69071264 L 3930 5819.69071264 L 3915 5845.67147475 L 3930 5871.65223686 L 3960 5871.65223686 L 3945 5897.63299897 L 3960 5923.61376108 L 3990 5923.61376108 L 4005 5897.63299897 L 4020 5923.61376108 L 4050 5923.61376108 L 4035 5949.59452319 L 4050 5975.5752853 L 4020 5975.5752853 L 4005 6001.55604741 L 4020 6027.53680952 L 4050 6027.53680952 L 4035 6053.51757163 L 4050 6079.49833374 L 4020 6079.49833374 L 4005 6105.47909585 L 3990 6079.49833374 L 3960 6079.49833374 L 3945 6105.47909585 L 3960 6131.45985796 L 3930 6131.45985796 L 3915 6157.44062007 L 3900 6131.45985796 L 3870 6131.45985796 L 3885 6105.47909585 L 3870 6079.49833374 L 3840 6079.49833374 L 3825 6105.47909585 L 3810 6079.49833374 L 3780 6079.49833374 L 3765 6105.47909585 L 3780 6131.45985796 L 3750 6131.45985796 L 3735 6157.44062007 L 3750 6183.42138218 L 3780 6183.42138218 L 3765 6209.40214429 L 3780 6235.3829064 L 3750 6235.3829064 L 3735 6261.36366851 L 3720 6235.3829064 L 3690 6235.3829064 L 3675 6261.36366851 L 3690 6287.34443062 L 3660 6287.34443062 L 3645 6313.32519273 L 3630 6287.34443062 L 3600 6287.34443062 L 3615 6261.36366851 L 3600 6235.3829064 L 3570 6235.3829064 L 3555 6261.36366851 L 3540 6235.3829064 L 3510 6235.3829064 L 3525 6209.40214429 L 3510 6183.42138218 L 3540 6183.42138218 L 3555 6157.44062007 L 3540 6131.45985796 L 3510 6131.45985796 L 3525 6105.47909585 L 3510 6079.49833374 L 3480 6079.49833374 L 3465 6105.47909585 L 3450 6079.49833374 L 3420 6079.49833374 L 3405 6105.47909585 L 3420 6131.45985796 L 3390 6131.45985796 L 3375 6157.44062007 L 3360 6131.45985796 L 3330 6131.45985796 L 3345 6105.47909585 L 3330 6079.49833374 L 3300 6079.49833374 L 3285 6105.47909585 L 3270 6079.49833374 L 3240 6079.49833374 L 3255 6053.51757163 L 3240 6027.53680952 L 3270 6027.53680952 L 3285 6001.55604741 L 3270 5975.5752853 L 3240 5975.5752853 L 3255 5949.59452319 L 3240 5923.61376108 L 3270 5923.61376108 L 3285 5897.63299897 L 3300 5923.61376108 L 3330 5923.61376108 L 3345 5897.63299897 L 3330 5871.65223686 L 3360 5871.65223686 L 3375 5845.67147475 L 3360 5819.69071264 L 3330 5819.69071264 L 3345 5793.70995053 L 3330 5767.72918842 L 3300 5767.72918842 L 3285 5793.70995053 L 3270 5767.72918842 L 3240 5767.72918842 L 3255 5741.74842631 L 3240 5715.7676642 L 3270 5715.7676642 L 3285 5689.78690209 L 3270 5663.80613998 L 3240 5663.80613998 L 3255 5637.82537787 L 3240 5611.84461576 L 3210 5611.84461576 L 3195 5637.82537787 L 3180 5611.84461576 L 3150 5611.84461576 L 3135 5637.82537787 L 3150 5663.80613998 L 3120 5663.80613998 L 3105 5689.78690209 L 3090 5663.80613998 L 3060 5663.80613998 L 3075 5637.82537787 L 3060 5611.84461576 L 3030 5611.84461576 L 3015 5637.82537787 L 3000 5611.84461576 L 2970 5611.84461576 L 2955 5637.82537787 L 2970 5663.80613998 L 2940 5663.80613998 L 2925 5689.78690209 L 2940 5715.7676642 L 2970 5715.7676642 L 2955 5741.74842631 L 2970 5767.72918842 L 2940 5767.72918842 L 2925 5793.70995053 L 2910 5767.72918842 L 2880 5767.72918842 L 2865 5793.70995053 L 2880 5819.69071264 L 2850 5819.69071264 L 2835 5845.67147475 L 2820 5819.69071264 L 2790 5819.69071264 L 2805 5793.70995053 L 2790 5767.72918842 L 2760 5767.72918842 L 2745 5793.70995053 L 2730 5767.72918842 L 2700 5767.72918842 L 2715 5741.74842631 L 2700 5715.7676642 L 2730 5715.7676642 L 2745 5689.78690209 L 2730 5663.80613998 L 2700 5663.80613998 L 2715 5637.82537787 L 2700 5611.84461576 L 2670 5611.84461576 L 2655 5637.82537787 L 2640 5611.84461576 L 2610 5611.84461576 L 2595 5637.82537787 L 2610 5663.80613998 L 2580 5663.80613998 L 2565 5689.78690209 L 2550 5663.80613998 L 2520 5663.80613998 L 2535 5637.82537787 L 2520 5611.84461576 L 2490 5611.84461576 L 2475 5637.82537787 L 2460 5611.84461576 L 2430 5611.84461576 L 2445 5585.86385365 L 2430 5559.88309154 L 2460 5559.88309154 L 2475 5533.90232943 L 2460 5507.92156732 L 2430 5507.92156732 L 2445 5481.94080521 L 2430 5455.9600431 L 2460 5455.9600431 L 2475 5429.97928099 L 2490 5455.9600431 L 2520 5455.9600431 L 2535 5429.97928099 L 2520 5403.99851888 L 2550 5403.99851888 L 2565 5378.01775677 L 2550 5352.03699466 L 2520 5352.03699466 L 2535 5326.05623255 L 2520 5300.07547044 L 2490 5300.07547044 L 2475 5326.05623255 L 2460 5300.07547044 L 2430 5300.07547044 L 2445 5274.09470833 L 2430 5248.11394622 L 2460 5248.11394622 L 2475 5222.13318411 L 2460 5196.152422 L 2430 5196.152422 L 2445 5170.17165989 L 2430 5144.19089778 L 2460 5144.19089778 L 2475 5118.21013567 L 2490 5144.19089778 L 2520 5144.19089778 L 2535 5118.21013567 L 2520 5092.22937356 L 2550 5092.22937356 L 2565 5066.24861145 L 2580 5092.22937356 L 2610 5092.22937356 L 2595 5118.21013567 L 2610 5144.19089778 L 2640 5144.19089778 L 2655 5118.21013567 L 2670 5144.19089778 L 2700 5144.19089778 L 2715 5118.21013567 L 2700 5092.22937356 L 2730 5092.22937356 L 2745 5066.24861145 L 2730 5040.26784934 L 2700 5040.26784934 L 2715 5014.28708723 L 2700 4988.30632512 L 2730 4988.30632512 L 2745 4962.32556301 L 2760 4988.30632512 L 2790 4988.30632512 L 2805 4962.32556301 L 2790 4936.3448009 L 2820 4936.3448009 L 2835 4910.36403879 L 2820 4884.38327668 L 2790 4884.38327668 L 2805 4858.40251457 L 2790 4832.42175246 L 2760 4832.42175246 L 2745 4858.40251457 L 2730 4832.42175246 L 2700 4832.42175246 L 2715 4806.44099035 L 2700 4780.46022824 L 2730 4780.46022824 L 2745 4754.47946613 L 2730 4728.49870402 L 2700 4728.49870402 L 2715 4702.51794191 L 2700 4676.5371798 L 2670 4676.5371798 L 2655 4702.51794191 L 2640 4676.5371798 L 2610 4676.5371798 L 2595 4702.51794191 L 2610 4728.49870402 L 2580 4728.49870402 L 2565 4754.47946613 L 2550 4728.49870402 L 2520 4728.49870402 L 2535 4702.51794191 L 2520 4676.5371798 L 2490 4676.5371798 L 2475 4702.51794191 L 2460 4676.5371798 L 2430 4676.5371798 L 2445 4650.55641769 L 2430 4624.57565558 L 2460 4624.57565558 L 2475 4598.59489347 L 2460 4572.61413136 L 2430 4572.61413136 L 2445 4546.63336925 L 2430 4520.65260714 L 2460 4520.65260714 L 2475 4494.67184503 L 2490 4520.65260714 L 2520 4520.65260714 L 2535 4494.67184503 L 2520 4468.69108292 L 2550 4468.69108292 L 2565 4442.71032081 L 2550 4416.7295587 L 2520 4416.7295587 L 2535 4390.74879659 L 2520 4364.76803448 L 2490 4364.76803448 L 2475 4390.74879659 L 2460 4364.76803448 L 2430 4364.76803448 L 2445 4338.78727237 L 2430 4312.80651026 L 2460 4312.80651026 L 2475 4286.82574815 L 2460 4260.84498604 L 2430 4260.84498604 L 2445 4234.86422393 L 2430 4208.88346182 L 2400 4208.88346182 L 2385 4234.86422393 L 2370 4208.88346182 L 2340 4208.88346182 L 2325 4234.86422393 L 2340 4260.84498604 L 2310 4260.84498604 L 2295 4286.82574815 L 2280 4260.84498604 L 2250 4260.84498604 L 2265 4234.86422393 L 2250 4208.88346182 L 2220 4208.88346182 L 2205 4234.86422393 L 2190 4208.88346182 L 2160 4208.88346182 L 2145 4234.86422393 L 2160 4260.84498604 L 2130 4260.84498604 L 2115 4286.82574815 L 2130 4312.80651026 L 2160 4312.80651026 L 2145 4338.78727237 L 2160 4364.76803448 L 2130 4364.76803448 L 2115 4390.74879659 L 2100 4364.76803448 L 2070 4364.76803448 L 2055 4390.74879659 L 2070 4416.7295587 L 2040 4416.7295587 L 2025 4442.71032081 L 2010 4416.7295587 L 1980 4416.7295587 L 1995 4390.74879659 L 1980 4364.76803448 L 1950 4364.76803448 L 1935 4390.74879659 L 1920 4364.76803448 L 1890 4364.76803448 L 1905 4338.78727237 L 1890 4312.80651026 L 1920 4312.80651026 L 1935 4286.82574815 L 1920 4260.84498604 L 1890 4260.84498604 L 1905 4234.86422393 L 1890 4208.88346182 L 1860 4208.88346182 L 1845 4234.86422393 L 1830 4208.88346182 L 1800 4208.88346182 L 1785 4234.86422393 L 1800 4260.84498604 L 1770 4260.84498604 L 1755 4286.82574815 L 1740 4260.84498604 L 1710 4260.84498604 L 1725 4234.86422393 L 1710 4208.88346182 L 1680 4208.88346182 L 1665 4234.86422393 L 1650 4208.88346182 L 1620 4208.88346182 L 1605 4234.86422393 L 1620 4260.84498604 L 1590 4260.84498604 L 1575 4286.82574815 L 1590 4312.80651026 L 1620 4312.80651026 L 1605 4338.78727237 L 1620 4364.76803448 L 1590 4364.76803448 L 1575 4390.74879659 L 1560 4364.76803448 L 1530 4364.76803448 L 1515 4390.74879659 L 1530 4416.7295587 L 1500 4416.7295587 L 1485 4442.71032081 L 1500 4468.69108292 L 1530 4468.69108292 L 1515 4494.67184503 L 1530 4520.65260714 L 1560 4520.65260714 L 1575 4494.67184503 L 1590 4520.65260714 L 1620 4520.65260714 L 1605 4546.63336925 L 1620 4572.61413136 L 1590 4572.61413136 L 1575 4598.59489347 L 1590 4624.57565558 L 1620 4624.57565558 L 1605 4650.55641769 L 1620 4676.5371798 L 1590 4676.5371798 L 1575 4702.51794191 L 1560 4676.5371798 L 1530 4676.5371798 L 1515 4702.51794191 L 1530 4728.49870402 L 1500 4728.49870402 L 1485 4754.47946613 L 1470 4728.49870402 L 1440 4728.49870402 L 1455 4702.51794191 L 1440 4676.5371798 L 1410 4676.5371798 L 1395 4702.51794191 L 1380 4676.5371798 L 1350 4676.5371798 L 1335 4702.51794191 L 1350 4728.49870402 L 1320 4728.49870402 L 1305 4754.47946613 L 1320 4780.46022824 L 1350 4780.46022824 L 1335 4806.44099035 L 1350 4832.42175246 L 1320 4832.42175246 L 1305 4858.40251457 L 1290 4832.42175246 L 1260 4832.42175246 L 1245 4858.40251457 L 1260 4884.38327668 L 1230 4884.38327668 L 1215 4910.36403879 L 1200 4884.38327668 L 1170 4884.38327668 L 1185 4858.40251457 L 1170 4832.42175246 L 1140 4832.42175246 L 1125 4858.40251457 L 1110 4832.42175246 L 1080 4832.42175246 L 1095 4806.44099035 L 1080 4780.46022824 L 1110 4780.46022824 L 1125 4754.47946613 L 1110 4728.49870402 L 1080 4728.49870402 L 1095 4702.51794191 L 1080 4676.5371798 L 1050 4676.5371798 L 1035 4702.51794191 L 1020 4676.5371798 L 990 4676.5371798 L 975 4702.51794191 L 990 4728.49870402 L 960 4728.49870402 L 945 4754.47946613 L 930 4728.49870402 L 900 4728.49870402 L 915 4702.51794191 L 900 4676.5371798 L 870 4676.5371798 L 855 4702.51794191 L 840 4676.5371798 L 810 4676.5371798 L 825 4650.55641769 L 810 4624.57565558 L 840 4624.57565558 L 855 4598.59489347 L 840 4572.61413136 L 810 4572.61413136 L 825 4546.63336925 L 810 4520.65260714 L 840 4520.65260714 L 855 4494.67184503 L 870 4520.65260714 L 900 4520.65260714 L 915 4494.67184503 L 900 4468.69108292 L 930 4468.69108292 L 945 4442.71032081 L 930 4416.7295587 L 900 4416.7295587 L 915 4390.74879659 L 900 4364.76803448 L 870 4364.76803448 L 855 4390.74879659 L 840 4364.76803448 L 810 4364.76803448 L 825 4338.78727237 L 810 4312.80651026 L 840 4312.80651026 L 855 4286.82574815 L 840 4260.84498604 L 810 4260.84498604 L 825 4234.86422393 L 810 4208.88346182 L 780 4208.88346182 L 765 4234.86422393 L 750 4208.88346182 L 720 4208.88346182 L 705 4234.86422393 L 720 4260.84498604 L 690 4260.84498604 L 675 4286.82574815 L 660 4260.84498604 L 630 4260.84498604 L 645 4234.86422393 L 630 4208.88346182 L 600 4208.88346182 L 585 4234.86422393 L 570 4208.88346182 L 540 4208.88346182 L 525 4234.86422393 L 540 4260.84498604 L 510 4260.84498604 L 495 4286.82574815 L 510 4312.80651026 L 540 4312.80651026 L 525 4338.78727237 L 540 4364.76803448 L 510 4364.76803448 L 495 4390.74879659 L 480 4364.76803448 L 450 4364.76803448 L 435 4390.74879659 L 450 4416.7295587 L 420 4416.7295587 L 405 4442.71032081 L 390 4416.7295587 L 360 4416.7295587 L 375 4390.74879659 L 360 4364.76803448 L 330 4364.76803448 L 315 4390.74879659 L 300 4364.76803448 L 270 4364.76803448 L 285 4338.78727237 L 270 4312.80651026 L 300 4312.80651026 L 315 4286.82574815 L 300 4260.84498604 L 270 4260.84498604 L 285 4234.86422393 L 270 4208.88346182 L 240 4208.88346182 L 225 4234.86422393 L 210 4208.88346182 L 180 4208.88346182 L 165 4234.86422393 L 180 4260.84498604 L 150 4260.84498604 L 135 4286.82574815 L 120 4260.84498604 L 90 4260.84498604 L 105 4234.86422393 L 90 4208.88346182 L 60 4208.88346182 L 45 4234.86422393 L 30 4208.88346182 L 0 4208.88346182 L 15 4182.90269971 L 0 4156.9219376 L 30 4156.9219376 L 45 4130.94117549 L 30 4104.96041338 L 0 4104.96041338 L 15 4078.97965127 L 0 4052.99888916 L 30 4052.99888916 L 45 4027.01812705 L 60 4052.99888916 L 90 4052.99888916 L 105 4027.01812705 L 90 4001.03736494 L 120 4001.03736494 L 135 3975.05660283 L 120 3949.07584072 L 90 3949.07584072 L 105 3923.09507861 L 90 3897.1143165 L 60 3897.1143165 L 45 3923.09507861 L 30 3897.1143165 L 0 3897.1143165 L 15 3871.13355439 L 0 3845.15279228 L 30 3845.15279228 L 45 3819.17203017 L 30 3793.19126806 L 0 3793.19126806 L 15 3767.21050595 L 0 3741.22974384 L 30 3741.22974384 L 45 3715.24898173 L 60 3741.22974384 L 90 3741.22974384 L 105 3715.24898173 L 90 3689.26821962 L 120 3689.26821962 L 135 3663.28745751 L 150 3689.26821962 L 180 3689.26821962 L 165 3715.24898173 L 180 3741.22974384 L 210 3741.22974384 L 225 3715.24898173 L 240 3741.22974384 L 270 3741.22974384 L 285 3715.24898173 L 270 3689.26821962 L 300 3689.26821962 L 315 3663.28745751 L 300 3637.3066954 L 270 3637.3066954 L 285 3611.32593329 L 270 3585.34517118 L 300 3585.34517118 L 315 3559.36440907 L 330 3585.34517118 L 360 3585.34517118 L 375 3559.36440907 L 360 3533.38364696 L 390 3533.38364696 L 405 3507.40288485 L 390 3481.42212274 L 360 3481.42212274 L 375 3455.44136063 L 360 3429.46059852 L 330 3429.46059852 L 315 3455.44136063 L 300 3429.46059852 L 270 3429.46059852 L 285 3403.47983641 L 270 3377.4990743 L 300 3377.4990743 L 315 3351.51831219 L 300 3325.53755008 L 270 3325.53755008 L 285 3299.55678797 L 270 3273.57602586 L 240 3273.57602586 L 225 3299.55678797 L 210 3273.57602586 L 180 3273.57602586 L 165 3299.55678797 L 180 3325.53755008 L 150 3325.53755008 L 135 3351.51831219 L 120 3325.53755008 L 90 3325.53755008 L 105 3299.55678797 L 90 3273.57602586 L 60 3273.57602586 L 45 3299.55678797 L 30 3273.57602586 L 0 3273.57602586 L 15 3247.59526375 L 0 3221.61450164 L 30 3221.61450164 L 45 3195.63373953 L 30 3169.65297742 L 0 3169.65297742 L 15 3143.67221531 L 0 3117.6914532 L 30 3117.6914532 L 45 3091.71069109 L 60 3117.6914532 L 90 3117.6914532 L 105 3091.71069109 L 90 3065.72992898 L 120 3065.72992898 L 135 3039.74916687 L 120 3013.76840476 L 90 3013.76840476 L 105 2987.78764265 L 90 2961.80688054 L 60 2961.80688054 L 45 2987.78764265 L 30 2961.80688054 L 0 2961.80688054 L 15 2935.82611843 L 0 2909.84535632 L 30 2909.84535632 L 45 2883.86459421 L 30 2857.8838321 L 0 2857.8838321 L 15 2831.90306999 L 0 2805.92230788 L 30 2805.92230788 L 45 2779.94154577 L 60 2805.92230788 L 90 2805.92230788 L 105 2779.94154577 L 90 2753.96078366 L 120 2753.96078366 L 135 2727.98002155 L 150 2753.96078366 L 180 2753.96078366 L 165 2779.94154577 L 180 2805.92230788 L 210 2805.92230788 L 225 2779.94154577 L 240 2805.92230788 L 270 2805.92230788 L 285 2779.94154577 L 270 2753.96078366 L 300 2753.96078366 L 315 2727.98002155 L 300 2701.99925944 L 270 2701.99925944 L 285 2676.01849733 L 270 2650.03773522 L 300 2650.03773522 L 315 2624.05697311 L 330 2650.03773522 L 360 2650.03773522 L 375 2624.05697311 L 360 2598.076211 L 390 2598.076211 L 405 2572.09544889 L 420 2598.076211 L 450 2598.076211 L 435 2624.05697311 L 450 2650.03773522 L 480 2650.03773522 L 495 2624.05697311 L 510 2650.03773522 L 540 2650.03773522 L 525 2676.01849733 L 540 2701.99925944 L 510 2701.99925944 L 495 2727.98002155 L 510 2753.96078366 L 540 2753.96078366 L 525 2779.94154577 L 540 2805.92230788 L 570 2805.92230788 L 585 2779.94154577 L 600 2805.92230788 L 630 2805.92230788 L 645 2779.94154577 L 630 2753.96078366 L 660 2753.96078366 L 675 2727.98002155 L 690 2753.96078366 L 720 2753.96078366 L 705 2779.94154577 L 720 2805.92230788 L 750 2805.92230788 L 765 2779.94154577 L 780 2805.92230788 L 810 2805.92230788 L 825 2779.94154577 L 810 2753.96078366 L 840 2753.96078366 L 855 2727.98002155 L 840 2701.99925944 L 810 2701.99925944 L 825 2676.01849733 L 810 2650.03773522 L 840 2650.03773522 L 855 2624.05697311 L 870 2650.03773522 L 900 2650.03773522 L 915 2624.05697311 L 900 2598.076211 L 930 2598.076211 L 945 2572.09544889 L 930 2546.11468678 L 900 2546.11468678 L 915 2520.13392467 L 900 2494.15316256 L 870 2494.15316256 L 855 2520.13392467 L 840 2494.15316256 L 810 2494.15316256 L 825 2468.17240045 L 810 2442.19163834 L 840 2442.19163834 L 855 2416.21087623 L 840 2390.23011412 L 810 2390.23011412 L 825 2364.24935201 L 810 2338.2685899 L 840 2338.2685899 L 855 2312.28782779 L 870 2338.2685899 L 900 2338.2685899 L 915 2312.28782779 L 900 2286.30706568 L 930 2286.30706568 L 945 2260.32630357 L 960 2286.30706568 L 990 2286.30706568 L 975 2312.28782779 L 990 2338.2685899 L 1020 2338.2685899 L 1035 2312.28782779 L 1050 2338.2685899 L 1080 2338.2685899 L 1095 2312.28782779 L 1080 2286.30706568 L 1110 2286.30706568 L 1125 2260.32630357 L 1110 2234.34554146 L 1080 2234.34554146 L 1095 2208.36477935 L 1080 2182.38401724 L 1110 2182.38401724 L 1125 2156.40325513 L 1140 2182.38401724 L 1170 2182.38401724 L 1185 2156.40325513 L 1170 2130.42249302 L 1200 2130.42249302 L 1215 2104.44173091 L 1200 2078.4609688 L 1170 2078.4609688 L 1185 2052.48020669 L 1170 2026.49944458 L 1140 2026.49944458 L 1125 2052.48020669 L 1110 2026.49944458 L 1080 2026.49944458 L 1095 2000.51868247 L 1080 1974.53792036 L 1110 1974.53792036 L 1125 1948.55715825 L 1110 1922.57639614 L 1080 1922.57639614 L 1095 1896.59563403 L 1080 1870.61487192 L 1050 1870.61487192 L 1035 1896.59563403 L 1020 1870.61487192 L 990 1870.61487192 L 975 1896.59563403 L 990 1922.57639614 L 960 1922.57639614 L 945 1948.55715825 L 930 1922.57639614 L 900 1922.57639614 L 915 1896.59563403 L 900 1870.61487192 L 870 1870.61487192 L 855 1896.59563403 L 840 1870.61487192 L 810 1870.61487192 L 825 1844.63410981 L 810 1818.6533477 L 840 1818.6533477 L 855 1792.67258559 L 840 1766.69182348 L 810 1766.69182348 L 825 1740.71106137 L 810 1714.73029926 L 840 1714.73029926 L 855 1688.74953715 L 870 1714.73029926 L 900 1714.73029926 L 915 1688.74953715 L 900 1662.76877504 L 930 1662.76877504 L 945 1636.78801293 L 930 1610.80725082 L 900 1610.80725082 L 915 1584.82648871 L 900 1558.8457266 L 870 1558.8457266 L 855 1584.82648871 L 840 1558.8457266 L 810 1558.8457266 L 825 1532.86496449 L 810 1506.88420238 L 840 1506.88420238 L 855 1480.90344027 L 840 1454.92267816 L 810 1454.92267816 L 825 1428.94191605 L 810 1402.96115394 L 780 1402.96115394 L 765 1428.94191605 L 750 1402.96115394 L 720 1402.96115394 L 705 1428.94191605 L 720 1454.92267816 L 690 1454.92267816 L 675 1480.90344027 L 660 1454.92267816 L 630 1454.92267816 L 645 1428.94191605 L 630 1402.96115394 L 600 1402.96115394 L 585 1428.94191605 L 570 1402.96115394 L 540 1402.96115394 L 525 1428.94191605 L 540 1454.92267816 L 510 1454.92267816 L 495 1480.90344027 L 510 1506.88420238 L 540 1506.88420238 L 525 1532.86496449 L 540 1558.8457266 L 510 1558.8457266 L 495 1584.82648871 L 480 1558.8457266 L 450 1558.8457266 L 435 1584.82648871 L 450 1610.80725082 L 420 1610.80725082 L 405 1636.78801293 L 390 1610.80725082 L 360 1610.80725082 L 375 1584.82648871 L 360 1558.8457266 L 330 1558.8457266 L 315 1584.82648871 L 300 1558.8457266 L 270 1558.8457266 L 285 1532.86496449 L 270 1506.88420238 L 300 1506.88420238 L 315 1480.90344027 L 300 1454.92267816 L 270 1454.92267816 L 285 1428.94191605 L 270 1402.96115394 L 240 1402.96115394 L 225 1428.94191605 L 210 1402.96115394 L 180 1402.96115394 L 165 1428.94191605 L 180 1454.92267816 L 150 1454.92267816 L 135 1480.90344027 L 120 1454.92267816 L 90 1454.92267816 L 105 1428.94191605 L 90 1402.96115394 L 60 1402.96115394 L 45 1428.94191605 L 30 1402.96115394 L 0 1402.96115394 L 15 1376.98039183 L 0 1350.99962972 L 30 1350.99962972 L 45 1325.01886761 L 30 1299.0381055 L 0 1299.0381055 L 15 1273.05734339 L 0 1247.07658128 L 30 1247.07658128 L 45 1221.09581917 L 60 1247.07658128 L 90 1247.07658128 L 105 1221.09581917 L 90 1195.11505706 L 120 1195.11505706 L 135 1169.13429495 L 120 1143.15353284 L 90 1143.15353284 L 105 1117.17277073 L 90 1091.19200862 L 60 1091.19200862 L 45 1117.17277073 L 30 1091.19200862 L 0 1091.19200862 L 15 1065.21124651 L 0 1039.2304844 L 30 1039.2304844 L 45 1013.24972229 L 30 987.26896018 L 0 987.26896018 L 15 961.28819807 L 0 935.30743596 L 30 935.30743596 L 45 909.32667385 L 60 935.30743596 L 90 935.30743596 L 105 909.32667385 L 90 883.34591174 L 120 883.34591174 L 135 857.36514963 L 150 883.34591174 L 180 883.34591174 L 165 909.32667385 L 180 935.30743596 L 210 935.30743596 L 225 909.32667385 L 240 935.30743596 L 270 935.30743596 L 285 909.32667385 L 270 883.34591174 L 300 883.34591174 L 315 857.36514963 L 300 831.38438752 L 270 831.38438752 L 285 805.40362541 L 270 779.4228633 L 300 779.4228633 L 315 753.44210119 L 330 779.4228633 L 360 779.4228633 L 375 753.44210119 L 360 727.46133908 L 390 727.46133908 L 405 701.48057697 L 390 675.49981486 L 360 675.49981486 L 375 649.51905275 L 360 623.53829064 L 330 623.53829064 L 315 649.51905275 L 300 623.53829064 L 270 623.53829064 L 285 597.55752853 L 270 571.57676642 L 300 571.57676642 L 315 545.59600431 L 300 519.6152422 L 270 519.6152422 L 285 493.63448009 L 270 467.65371798 L 240 467.65371798 L 225 493.63448009 L 210 467.65371798 L 180 467.65371798 L 165 493.63448009 L 180 519.6152422 L 150 519.6152422 L 135 545.59600431 L 120 519.6152422 L 90 519.6152422 L 105 493.63448009 L 90 467.65371798 L 60 467.65371798 L 45 493.63448009 L 30 467.65371798 L 0 467.65371798 L 15 441.67295587 L 0 415.69219376 L 30 415.69219376 L 45 389.71143165 L 30 363.73066954 L 0 363.73066954 L 15 337.74990743 L 0 311.76914532 L 30 311.76914532 L 45 285.78838321 L 60 311.76914532 L 90 311.76914532 L 105 285.78838321 L 90 259.8076211 L 120 259.8076211 L 135 233.82685899 L 120 207.84609688 L 90 207.84609688 L 105 181.86533477 L 90 155.88457266 L 60 155.88457266 L 45 181.86533477 L 30 155.88457266 L 0 155.88457266 L 15 129.90381055 L 0 103.92304844 L 30 103.92304844 L 45 77.94228633 L 30 51.96152422 L 0 51.96152422 L 15 25.98076211 L 0 0 "/></svg>